<?xml version="1.0" encoding="UTF-8"?>
<svg width="279px" height="99px" viewBox="0 0 279 99" version="1.1" xmlns="http://www.w3.org/2000/svg" xmlns:xlink="http://www.w3.org/1999/xlink">
    <!-- Generator: sketchtool 55.2 (78181) - https://sketchapp.com -->
    <title>906177B5-6C53-45AF-9293-6C680C96A360</title>
    <desc>Created with sketchtool.</desc>
    <g id="English" stroke="none" stroke-width="1" fill="none" fill-rule="evenodd" opacity="0.800000012">
        <g id="Homepage-4" transform="translate(-136.000000, -1856.000000)" fill="#E6EDF4">
            <g id="Section_ourStories" transform="translate(135.000000, 1757.000000)">
                <g id="Wave" transform="translate(1.000000, 99.000000)">
                    <path d="M278.376425,79.3288119 L279.0002,79.0740262 L279.0002,81.5540622 L278.715098,81.6695406 C266.344011,86.6708548 254.574909,89.1014 242.736801,89.1014 C215.225321,89.1014 193.561166,76.1311602 172.609767,63.5861741 C151.893531,51.1979087 130.4827,38.392638 103.635854,38.392638 C76.7817438,38.392638 55.3745438,51.2006582 34.6710203,63.5861741 L34.4231446,63.7346463 C23.6346495,70.1821899 12.4775187,76.8478594 0.623975136,81.6447952 L0.0002,81.8977479 L0.0002,79.4360418 L0.283486525,79.3196469 C11.8610073,74.5630369 22.8483478,67.9917664 33.4734084,61.6367888 C54.4974452,49.0652244 76.1743121,36.1014 103.635854,36.1014 C131.098303,36.1014 152.776078,49.0652244 173.740189,61.601962 C194.465504,74.0021418 215.871796,86.810162 242.736801,86.810162 C254.416014,86.810162 266.074344,84.3631199 278.376425,79.3288119 L278.376425,79.3288119 Z M242.736801,95.8105582 C215.885415,95.8105582 194.471859,83.0001707 173.732925,70.5938878 C152.771538,58.060234 131.095579,45.1014 103.635854,45.1014 C76.177036,45.1014 54.502893,58.060234 33.5415061,70.5920551 L33.4616048,70.6406209 C22.840176,76.9908345 11.8564674,83.5582198 0.283486525,88.3130911 L0.0002,88.4294658 L0.0002,90.8889136 L0.623975136,90.636921 C12.4775187,85.8408146 23.6346495,79.1753812 34.4231446,72.7298687 L34.6710203,72.5814221 C55.3745438,60.1971313 76.7817438,47.3922418 103.635854,47.3922418 C130.4827,47.3922418 151.893531,60.1943822 172.609767,72.5814221 C193.569337,85.1279046 215.242573,98.1014 242.736801,98.1014 C254.574909,98.1014 266.344011,95.6694423 278.715098,90.6662438 L279.0002,90.5507854 L279.0002,88.0711782 L278.376425,88.3268361 C266.074344,93.3630228 254.416014,95.8105582 242.736801,95.8105582 L242.736801,95.8105582 Z M278.376425,70.3306704 L279.0002,70.0750169 L279.0002,72.5509159 L278.715098,72.6663723 C266.340379,77.6694844 254.571277,80.1014 242.736801,80.1014 C215.258916,80.1014 193.576601,67.1327105 172.609767,54.5910266 C151.907151,42.2023682 130.499951,29.3922022 103.635854,29.3922022 C76.7644924,29.3922022 55.3654641,42.2023682 34.6710203,54.5910266 L34.410433,54.7468011 C23.6255698,61.1894533 12.4738868,67.8511061 0.623975136,72.6462133 L0.0002,72.8982015 L0.0002,70.4278004 L0.283486525,70.312344 C11.8519276,65.5685508 22.8310964,59.0049443 33.4479852,52.6575895 C54.4774698,40.0746711 76.1597846,27.1014 103.635854,27.1014 C131.112831,27.1014 152.794237,40.0746711 173.762888,52.6209367 C194.465504,65.0050134 215.871796,77.8105978 242.736801,77.8105978 C254.416014,77.8105978 266.074344,75.364021 278.376425,70.3306704 L278.376425,70.3306704 Z M278.376425,61.329923 L279.0002,61.0742739 L279.0002,63.5501301 L278.715098,63.6655846 C266.342195,68.6695264 254.574001,71.1014 242.736801,71.1014 C215.242573,71.1014 193.569337,58.1283532 172.609767,45.5813882 C151.890808,33.1938604 130.480884,20.3921626 103.635854,20.3921626 C76.7835597,20.3921626 55.3745438,33.1984419 34.6710203,45.5813882 L34.5520763,45.65286 C23.7227225,52.132053 12.5247331,58.8302429 0.623975136,63.6454259 L0.0002,63.8983261 L0.0002,61.4279677 L0.283486525,61.3115969 C11.8610073,56.5559737 22.8483478,49.9860666 33.4734084,43.6324074 C54.5001691,31.0616185 76.1761281,18.1014 103.635854,18.1014 C131.096487,18.1014 152.773354,31.0625348 173.736557,43.5957552 C194.45824,55.9997766 215.858176,68.8106374 242.736801,68.8106374 C254.416014,68.8106374 266.073436,66.3631866 278.376425,61.329923 L278.376425,61.329923 Z M279.0002,43.0740262 L279.0002,45.5540622 L278.715098,45.6695406 C266.344011,50.6708548 254.574909,53.1014 242.736801,53.1014 C215.225321,53.1014 193.561166,40.1311602 172.609767,27.5861741 C151.893531,15.1979087 130.4827,2.39263796 103.635854,2.39263796 C76.7817438,2.39263796 55.3745438,15.2006582 34.6710203,27.5861741 L34.4231446,27.7346463 C23.6346495,34.1821899 12.4775187,40.8478594 0.623975136,45.6447952 L0.0002,45.8977479 L0.0002,43.4360418 L0.283486525,43.3196469 C11.8610073,38.5630369 22.8483478,31.9917664 33.4734084,25.6367888 C54.4974452,13.0652244 76.1743121,0.1014 103.635854,0.1014 C131.098303,0.1014 152.776078,13.0652244 173.740189,25.601962 C194.465504,38.0021418 215.871796,50.810162 242.736801,50.810162 C254.416014,50.810162 266.074344,48.3631199 278.376425,43.3288119 L279.0002,43.0740262 Z M242.736801,59.8105582 C215.885415,59.8105582 194.471859,47.0001707 173.732925,34.5938878 C152.771538,22.060234 131.095579,9.1014 103.635854,9.1014 C76.177036,9.1014 54.502893,22.060234 33.5415061,34.5920551 L33.4616048,34.6406209 C22.840176,40.9908345 11.8564674,47.5582198 0.283486525,52.3130911 L0.0002,52.4294658 L0.0002,54.8889136 L0.623975136,54.636921 C12.4775187,49.8408146 23.6346495,43.1753812 34.4231446,36.7298687 L34.6710203,36.5814221 C55.3745438,24.1971313 76.7817438,11.3922418 103.635854,11.3922418 C130.4827,11.3922418 151.893531,24.1943822 172.609767,36.5814221 C193.569337,49.1279046 215.242573,62.1014 242.736801,62.1014 C254.574909,62.1014 266.344011,59.6694423 278.715098,54.6662438 L279.0002,54.5507854 L279.0002,52.0711782 L278.376425,52.3268361 C266.074344,57.3630228 254.416014,59.8105582 242.736801,59.8105582 L242.736801,59.8105582 Z" id="bg_wave"></path>
                </g>
            </g>
        </g>
    </g>
</svg>